<?xml version="1.0" standalone="no"?>
<!DOCTYPE svg PUBLIC "-//W3C//DTD SVG 20010904//EN"
 "http://www.w3.org/TR/2001/REC-SVG-20010904/DTD/svg10.dtd">
<svg version="1.0" xmlns="http://www.w3.org/2000/svg"
 width="459.000000pt" height="459.000000pt" viewBox="0 0 459.000000 459.000000"
 preserveAspectRatio="xMidYMid meet">
<metadata>
Created by potrace 1.11, written by Peter Selinger 2001-2013
</metadata>
<g transform="translate(0.000000,459.000000) scale(0.100000,-0.100000)"
fill="#000000" stroke="none">
<path d="M975 4572 c-3 -8 -8 -12 -11 -9 -9 8 -92 -26 -155 -64 -67 -40 -189
-161 -212 -211 -10 -21 -21 -38 -25 -38 -5 0 -14 -17 -21 -37 -7 -21 -19 -51
-26 -68 -36 -87 -36 -73 -32 -1875 2 -971 5 -1771 7 -1777 2 -7 8 -13 14 -13
6 0 4 -5 -4 -10 -12 -8 -12 -10 -1 -10 8 0 12 -3 8 -6 -3 -4 1 -20 9 -36 9
-17 17 -40 20 -51 2 -12 8 -23 14 -25 5 -2 10 -10 10 -18 0 -8 3 -14 8 -14 4
0 13 -13 20 -30 19 -41 159 -170 218 -200 27 -14 51 -27 54 -30 3 -3 14 -7 25
-8 11 -2 25 -8 32 -14 7 -5 17 -7 23 -3 5 3 13 -1 16 -10 4 -10 10 -12 18 -6
7 6 17 6 26 1 24 -15 260 -13 260 3 0 8 4 7 10 -3 8 -12 10 -12 10 -1 0 8 3
12 6 8 4 -3 22 0 40 8 19 8 34 12 34 10 0 -7 112 54 131 71 8 8 19 14 23 14 4
0 20 14 36 30 17 17 30 28 30 24 0 -12 89 101 107 136 10 19 23 38 28 42 7 5
7 8 0 8 -5 0 -3 5 5 10 8 5 15 13 15 17 1 8 22 75 32 103 8 20 11 37 17 82 2
20 7 42 11 48 4 6 2 16 -4 23 -6 8 -6 18 -1 27 5 9 5 19 -1 27 -7 8 -7 19 1
33 8 14 8 25 1 33 -6 8 -6 18 -1 27 5 9 5 19 -2 27 -8 10 -7 13 3 13 10 0 10
3 1 12 -7 7 -8 17 -2 29 7 11 7 20 0 24 -7 4 -7 12 0 24 5 10 7 21 3 25 -5 5
-8 81 -3 89 1 1 4 27 7 56 3 30 16 91 29 135 14 45 26 86 27 91 7 22 47 94 57
100 6 4 8 11 5 16 -4 5 -1 9 6 9 7 0 10 3 6 6 -3 4 4 15 16 25 12 10 18 18 14
19 -5 0 24 32 63 71 73 71 175 145 217 155 13 4 23 10 23 14 0 4 14 10 30 14
44 8 44 8 59 23 9 10 17 11 24 4 7 -7 14 -5 23 7 10 12 13 13 14 3 0 -10 3
-11 14 -2 8 7 42 14 75 16 33 2 65 6 70 9 5 4 12 2 16 -3 3 -6 12 -8 20 -5 7
3 24 0 37 -7 13 -7 27 -13 31 -14 5 0 14 -8 21 -17 7 -10 15 -15 18 -13 6 7
51 -52 56 -73 2 -9 7 -49 11 -88 4 -38 11 -76 16 -84 5 -8 4 -11 -3 -6 -9 5 8
-57 50 -176 7 -21 16 -38 20 -38 4 0 14 -16 22 -35 8 -19 22 -38 31 -41 8 -3
15 -15 15 -25 0 -10 3 -19 8 -19 4 0 33 -25 64 -54 31 -29 59 -51 62 -49 2 2
16 -6 31 -19 15 -13 30 -23 33 -24 4 0 24 -8 46 -17 21 -9 42 -17 47 -17 5 0
9 -4 9 -10 0 -5 7 -7 15 -4 8 3 27 -1 43 -9 19 -9 35 -11 45 -5 10 5 18 4 22
-2 4 -6 11 -8 16 -5 5 4 9 1 9 -5 0 -6 5 -8 11 -4 7 4 36 6 65 5 37 -1 54 2
54 11 0 8 3 9 11 1 11 -11 132 17 173 40 12 6 23 12 26 13 17 4 47 20 58 31 7
7 20 13 28 13 8 0 12 4 9 10 -3 5 5 12 19 16 14 3 28 14 31 24 3 11 15 22 26
25 11 4 19 9 16 11 -2 2 14 23 35 47 42 44 118 187 121 225 0 12 5 22 10 22 4
0 5 5 2 10 -3 6 -1 10 4 10 17 0 10 1692 -7 1713 -10 11 -10 17 -1 22 6 4 7
10 2 14 -5 3 -25 40 -45 81 -20 41 -46 89 -59 105 -32 41 -140 145 -151 145
-4 0 -17 9 -28 20 -12 12 -25 18 -30 15 -6 -4 -10 -1 -10 4 0 6 -3 10 -7 9 -5
-1 -27 8 -50 20 -24 12 -43 20 -43 18 0 -3 -15 0 -32 6 -32 10 -132 29 -153
29 -46 1 -150 -14 -155 -21 -3 -5 -12 -5 -19 0 -8 4 -21 4 -30 0 -24 -13 -83
-38 -110 -45 -13 -4 -32 -14 -42 -24 -11 -9 -23 -16 -27 -16 -15 1 -122 -99
-177 -166 -25 -29 -83 -147 -88 -177 -2 -12 -8 -27 -14 -33 -6 -6 -9 -18 -6
-25 3 -8 0 -14 -6 -14 -8 0 -9 -6 -3 -17 5 -10 6 -27 1 -38 -4 -11 -8 -45 -8
-75 -1 -38 -9 -70 -28 -107 -14 -29 -28 -51 -31 -49 -2 2 -15 -5 -28 -17 -24
-21 -30 -23 -93 -32 -18 -3 -37 -7 -41 -10 -5 -3 -11 -1 -15 5 -4 7 -12 7 -25
0 -13 -7 -21 -7 -25 0 -3 5 -22 10 -41 10 -19 0 -34 5 -34 11 0 5 -5 7 -10 4
-15 -9 -125 30 -200 71 -36 20 -75 41 -88 48 -12 6 -25 19 -28 29 -3 9 -11 17
-17 17 -16 1 -57 36 -57 48 0 6 -9 14 -20 17 -11 3 -20 14 -20 23 0 10 -9 23
-20 30 -11 7 -20 18 -20 26 0 8 -7 17 -16 20 -8 3 -13 10 -9 15 3 6 -3 14 -12
20 -10 6 -14 11 -9 11 5 0 1 9 -9 20 -10 11 -14 20 -10 20 4 0 0 9 -10 20 -10
11 -15 20 -10 20 4 0 3 6 -3 13 -5 6 -16 38 -23 70 -8 31 -16 57 -20 57 -3 0
-6 15 -7 33 -4 77 -8 113 -15 124 -4 6 -3 14 3 18 7 4 7 12 0 26 -8 14 -7 19
1 19 8 0 8 4 1 13 -7 8 -7 18 -2 27 5 9 5 19 -2 27 -7 9 -7 13 2 13 9 0 9 4 2
13 -7 8 -7 18 -2 27 5 9 5 19 -2 27 -7 9 -7 13 2 13 10 0 10 3 1 14 -8 10 -9
16 -1 21 7 4 7 12 0 26 -8 13 -7 25 0 40 8 14 8 24 1 32 -6 8 -6 18 -1 27 5 9
5 19 -1 27 -7 8 -7 18 0 31 6 11 6 23 1 28 -4 5 -11 25 -14 44 -14 90 -66 195
-143 287 -53 64 -112 113 -134 113 -6 0 -7 5 -4 10 3 6 1 10 -4 10 -6 0 -47
17 -91 39 -49 23 -83 35 -86 29 -4 -7 -10 -5 -15 5 -13 22 -325 22 -334 -1z"/>
</g>
</svg>
